<?xml version="1.0" encoding="UTF-8"?><svg xmlns="http://www.w3.org/2000/svg" xmlns:xlink="http://www.w3.org/1999/xlink" fill-opacity="1" color-rendering="auto" color-interpolation="auto" text-rendering="auto" stroke="black" stroke-linecap="square" width="459" stroke-miterlimit="10" shape-rendering="auto" stroke-opacity="1" fill="black" stroke-dasharray="none" font-weight="normal" stroke-width="1" height="162" font-family="'Dialog'" font-style="normal" stroke-linejoin="miter" font-size="12px" stroke-dashoffset="0" image-rendering="auto">
  <!--Generated by ySVG 2.6-->
  <defs id="genericDefs"/>
  <g>
    <defs id="defs1">
      <clipPath clipPathUnits="userSpaceOnUse" id="clipPath1">
        <path d="M0 0 L459 0 L459 162 L0 162 L0 0 Z"/>
      </clipPath>
      <clipPath clipPathUnits="userSpaceOnUse" id="clipPath2">
        <path d="M493 100 L952 100 L952 262 L493 262 L493 100 Z"/>
      </clipPath>
    </defs>
    <g fill="rgb(153,204,255)" text-rendering="geometricPrecision" shape-rendering="geometricPrecision" transform="matrix(1,0,0,1,-493,-100)" stroke="rgb(153,204,255)">
      <rect x="589" width="105" height="41" y="192" clip-path="url(#clipPath2)" stroke="none"/>
    </g>
    <g text-rendering="geometricPrecision" stroke-miterlimit="1.45" shape-rendering="geometricPrecision" transform="matrix(1,0,0,1,-493,-100)" stroke-linecap="butt">
      <rect fill="none" x="589" width="105" height="41" y="192" clip-path="url(#clipPath2)"/>
    </g>
    <g stroke-linecap="butt" font-size="16px" transform="matrix(1,0,0,1,-493,-100)" fill="rgb(51,102,255)" text-rendering="geometricPrecision" font-family="'Georgia'" shape-rendering="geometricPrecision" font-style="italic" stroke="rgb(51,102,255)" font-weight="bold" stroke-miterlimit="1.45">
      <text x="614.7539" xml:space="preserve" y="250.582" clip-path="url(#clipPath2)" stroke="none">length</text>
    </g>
    <g stroke-linecap="butt" font-size="16px" transform="matrix(1,0,0,1,-493,-100)" fill="red" text-rendering="geometricPrecision" font-family="'Arial'" shape-rendering="geometricPrecision" stroke="red" font-weight="bold" stroke-miterlimit="1.45">
      <text x="632.6016" xml:space="preserve" y="218.0469" clip-path="url(#clipPath2)" stroke="none">99</text>
    </g>
    <g fill="rgb(153,204,255)" text-rendering="geometricPrecision" shape-rendering="geometricPrecision" transform="matrix(1,0,0,1,-493,-100)" stroke="rgb(153,204,255)">
      <rect x="754" width="105" height="41" y="192" clip-path="url(#clipPath2)" stroke="none"/>
    </g>
    <g text-rendering="geometricPrecision" stroke-miterlimit="1.45" shape-rendering="geometricPrecision" transform="matrix(1,0,0,1,-493,-100)" stroke-linecap="butt">
      <rect fill="none" x="754" width="105" height="41" y="192" clip-path="url(#clipPath2)"/>
    </g>
    <g stroke-linecap="butt" font-size="16px" transform="matrix(1,0,0,1,-493,-100)" fill="rgb(51,102,255)" text-rendering="geometricPrecision" font-family="'Georgia'" shape-rendering="geometricPrecision" font-style="italic" stroke="rgb(51,102,255)" font-weight="bold" stroke-miterlimit="1.45">
      <text x="789.6797" xml:space="preserve" y="250.582" clip-path="url(#clipPath2)" stroke="none">side</text>
    </g>
    <g stroke-linecap="butt" font-size="16px" transform="matrix(1,0,0,1,-493,-100)" fill="red" text-rendering="geometricPrecision" font-family="'Arial'" shape-rendering="geometricPrecision" stroke="red" font-weight="bold" stroke-miterlimit="1.45">
      <text x="797.6016" xml:space="preserve" y="218.0469" clip-path="url(#clipPath2)" stroke="none">99</text>
    </g>
    <g stroke-linecap="butt" font-size="16px" transform="matrix(1,0,0,1,-493,-100)" fill="olive" text-rendering="geometricPrecision" font-family="'Georgia'" shape-rendering="geometricPrecision" font-style="italic" stroke="olive" font-weight="bold" stroke-miterlimit="1.45">
      <text x="503.2266" xml:space="preserve" y="123.082" clip-path="url(#clipPath2)" stroke="none">object</text>
      <text x="618.5469" xml:space="preserve" y="123.082" clip-path="url(#clipPath2)" stroke="none">value</text>
      <text x="891.2266" xml:space="preserve" y="123.082" clip-path="url(#clipPath2)" stroke="none">object</text>
      <text x="783.5469" xml:space="preserve" y="123.082" clip-path="url(#clipPath2)" stroke="none">value</text>
    </g>
    <g stroke-linecap="butt" transform="matrix(1,0,0,1,-493,-100)" fill="rgb(255,102,0)" text-rendering="geometricPrecision" shape-rendering="geometricPrecision" stroke="rgb(255,102,0)" stroke-width="2" stroke-miterlimit="1.45">
      <path fill="none" d="M536.8125 127 L587.751 185.2155" clip-path="url(#clipPath2)"/>
      <path d="M593.6776 191.9887 L589.021 178.1248 L587.0102 184.3688 L580.5545 185.5329 Z" clip-path="url(#clipPath2)" stroke="none"/>
      <path fill="none" d="M641.5 129.5 L641.5 196.5" clip-path="url(#clipPath2)"/>
      <path d="M641.5 205.5 L647.125 192 L641.5 195.375 L635.875 192 Z" clip-path="url(#clipPath2)" stroke="none"/>
      <path fill="none" d="M909.1771 127 L864.4848 184.9792" clip-path="url(#clipPath2)"/>
      <path d="M858.9902 192.1073 L871.6871 184.8493 L865.1716 184.0882 L862.777 177.981 Z" clip-path="url(#clipPath2)" stroke="none"/>
      <path fill="none" d="M806.5 129.5 L806.5 196.5" clip-path="url(#clipPath2)"/>
      <path d="M806.5 205.5 L812.125 192 L806.5 195.375 L800.875 192 Z" clip-path="url(#clipPath2)" stroke="none"/>
    </g>
  </g>
</svg>
