<?xml version="1.0" encoding="UTF-8"?><svg xmlns="http://www.w3.org/2000/svg" xmlns:xlink="http://www.w3.org/1999/xlink" fill-opacity="1" color-rendering="auto" color-interpolation="auto" text-rendering="auto" stroke="black" stroke-linecap="square" width="461" stroke-miterlimit="10" shape-rendering="auto" stroke-opacity="1" fill="black" stroke-dasharray="none" font-weight="normal" stroke-width="1" height="191" font-family="'Dialog'" font-style="normal" stroke-linejoin="miter" font-size="12px" stroke-dashoffset="0" image-rendering="auto">
  <!--Generated by ySVG 2.6-->
  <defs id="genericDefs"/>
  <g>
    <defs id="defs1">
      <clipPath clipPathUnits="userSpaceOnUse" id="clipPath1">
        <path d="M0 0 L461 0 L461 191 L0 191 L0 0 Z"/>
      </clipPath>
      <clipPath clipPathUnits="userSpaceOnUse" id="clipPath2">
        <path d="M336 125 L797 125 L797 316 L336 316 L336 125 Z"/>
      </clipPath>
    </defs>
    <g fill="white" text-rendering="geometricPrecision" shape-rendering="geometricPrecision" transform="translate(-336,-125)" stroke="white">
      <rect x="336" width="461" height="191" y="125" clip-path="url(#clipPath2)" stroke="none"/>
    </g>
    <g fill="rgb(153,204,255)" text-rendering="geometricPrecision" shape-rendering="geometricPrecision" transform="matrix(1,0,0,1,-336,-125)" stroke="rgb(153,204,255)">
      <rect x="475" width="105" height="41" y="187" clip-path="url(#clipPath2)" stroke="none"/>
    </g>
    <g text-rendering="geometricPrecision" stroke-miterlimit="1.45" shape-rendering="geometricPrecision" transform="matrix(1,0,0,1,-336,-125)" stroke-linecap="butt">
      <rect fill="none" x="475" width="105" height="41" y="187" clip-path="url(#clipPath2)"/>
    </g>
    <g stroke-linecap="butt" font-size="16px" transform="matrix(1,0,0,1,-336,-125)" fill="rgb(51,153,102)" text-rendering="geometricPrecision" font-family="'Georgia'" shape-rendering="geometricPrecision" font-style="italic" stroke="rgb(51,153,102)" font-weight="bold" stroke-miterlimit="1.45">
      <text x="389.2266" xml:space="preserve" y="147.082" clip-path="url(#clipPath2)" stroke="none">object</text>
    </g>
    <g stroke-linecap="butt" font-size="14px" transform="matrix(1,0,0,1,-336,-125)" fill="rgb(153,51,0)" text-rendering="geometricPrecision" font-family="'Arial'" shape-rendering="geometricPrecision" stroke="rgb(153,51,0)" font-weight="bold" stroke-miterlimit="1.45">
      <text x="523.2241" xml:space="preserve" y="212.3535" clip-path="url(#clipPath2)" stroke="none">?</text>
    </g>
    <g stroke-linecap="butt" font-size="16px" transform="matrix(1,0,0,1,-336,-125)" fill="rgb(51,153,102)" text-rendering="geometricPrecision" font-family="'Georgia'" shape-rendering="geometricPrecision" font-style="italic" stroke="rgb(51,153,102)" font-weight="bold" stroke-miterlimit="1.45">
      <text x="604.9102" xml:space="preserve" y="147.082" clip-path="url(#clipPath2)" stroke="none">no value</text>
      <text x="348.4219" xml:space="preserve" y="268.9023" clip-path="url(#clipPath2)" stroke="none">object name</text>
      <text x="389.6445" xml:space="preserve" y="287.082" clip-path="url(#clipPath2)" stroke="none">or</text>
      <text x="363.8594" xml:space="preserve" y="305.2617" clip-path="url(#clipPath2)" stroke="none">variable</text>
      <text fill="blue" x="509.293" xml:space="preserve" y="245.582" clip-path="url(#clipPath2)" stroke="none">dptr</text>
    </g>
    <g stroke-linecap="butt" font-size="16px" transform="matrix(1,0,0,1,-336,-125)" fill="blue" text-rendering="geometricPrecision" font-family="'Courier New'" shape-rendering="geometricPrecision" stroke="blue" font-weight="bold" stroke-miterlimit="1.45">
      <text x="604.3945" xml:space="preserve" y="211.7578" clip-path="url(#clipPath2)" stroke="none">0x0DF44</text>
    </g>
    <g stroke-linecap="butt" font-size="16px" transform="matrix(1,0,0,1,-336,-125)" fill="rgb(51,153,102)" text-rendering="geometricPrecision" font-family="'Georgia'" shape-rendering="geometricPrecision" font-style="italic" stroke="rgb(51,153,102)" font-weight="bold" stroke-miterlimit="1.45">
      <text x="666.3398" xml:space="preserve" y="268.9023" clip-path="url(#clipPath2)" stroke="none">object location</text>
      <text x="719.5547" xml:space="preserve" y="287.082" clip-path="url(#clipPath2)" stroke="none">in</text>
      <text x="692.5508" xml:space="preserve" y="305.2617" clip-path="url(#clipPath2)" stroke="none">Memory</text>
    </g>
    <g stroke-linecap="butt" transform="matrix(1,0,0,1,-336,-125)" fill="rgb(255,102,0)" text-rendering="geometricPrecision" shape-rendering="geometricPrecision" stroke="rgb(255,102,0)" stroke-width="2" stroke-miterlimit="1.45">
      <path fill="none" d="M426.789 151 L467.903 182.7831" clip-path="url(#clipPath2)"/>
      <path d="M475.0234 188.2876 L467.783 175.5806 L467.0129 182.0951 L460.9024 184.4812 Z" clip-path="url(#clipPath2)" stroke="none"/>
      <path fill="none" d="M624.2349 151 L544.7715 197.4122" clip-path="url(#clipPath2)"/>
      <path d="M537 201.9513 L551.4942 199.9998 L545.7429 196.8448 L545.8203 190.2855 Z" clip-path="url(#clipPath2)" stroke="none"/>
      <path fill="none" d="M456.9879 266.7051 L488.5834 254.7389" clip-path="url(#clipPath2)"/>
      <path d="M497 251.5513 L482.3828 251.0723 L487.5313 255.1373 L486.3674 261.5931 Z" clip-path="url(#clipPath2)" stroke="none"/>
      <path fill="none" d="M692.7297 252.5 L656.5059 222.7159" clip-path="url(#clipPath2)"/>
      <path d="M649.554 217 L656.4092 229.9188 L657.3748 223.4304 L663.5542 221.229 Z" clip-path="url(#clipPath2)" stroke="none"/>
    </g>
  </g>
</svg>
