<?xml version="1.0" encoding="UTF-8"?><svg xmlns="http://www.w3.org/2000/svg" xmlns:xlink="http://www.w3.org/1999/xlink" fill-opacity="1" color-rendering="auto" color-interpolation="auto" text-rendering="auto" stroke="black" stroke-linecap="square" width="391" stroke-miterlimit="10" shape-rendering="auto" stroke-opacity="1" fill="black" stroke-dasharray="none" font-weight="normal" stroke-width="1" height="105" font-family="'Dialog'" font-style="normal" stroke-linejoin="miter" font-size="12px" stroke-dashoffset="0" image-rendering="auto">
  <!--Generated by ySVG 2.6-->
  <defs id="genericDefs"/>
  <g>
    <defs id="defs1">
      <clipPath clipPathUnits="userSpaceOnUse" id="clipPath1">
        <path d="M0 0 L391 0 L391 105 L0 105 L0 0 Z"/>
      </clipPath>
      <clipPath clipPathUnits="userSpaceOnUse" id="clipPath2">
        <path d="M435 129 L826 129 L826 234 L435 234 L435 129 Z"/>
      </clipPath>
    </defs>
    <g fill="rgb(153,204,255)" text-rendering="geometricPrecision" shape-rendering="geometricPrecision" transform="matrix(1,0,0,1,-435,-129)" stroke="rgb(153,204,255)">
      <rect x="546" width="105" height="41" y="192" clip-path="url(#clipPath2)" stroke="none"/>
    </g>
    <g text-rendering="geometricPrecision" stroke-miterlimit="1.45" shape-rendering="geometricPrecision" transform="matrix(1,0,0,1,-435,-129)" stroke-linecap="butt">
      <rect fill="none" x="546" width="105" height="41" y="192" clip-path="url(#clipPath2)"/>
    </g>
    <g stroke-linecap="butt" font-size="16px" transform="matrix(1,0,0,1,-435,-129)" fill="olive" text-rendering="geometricPrecision" font-family="'Georgia'" shape-rendering="geometricPrecision" font-style="italic" stroke="olive" font-weight="bold" stroke-miterlimit="1.45">
      <text x="441.2266" xml:space="preserve" y="147.082" clip-path="url(#clipPath2)" stroke="none">object</text>
      <text fill="rgb(51,102,255)" x="480.7539" xml:space="preserve" y="218.082" clip-path="url(#clipPath2)" stroke="none">length</text>
      <text fill="rgb(51,102,255)" x="664.6797" xml:space="preserve" y="218.082" clip-path="url(#clipPath2)" stroke="none">side</text>
      <text x="675.5469" xml:space="preserve" y="149.582" clip-path="url(#clipPath2)" stroke="none">value</text>
    </g>
    <g stroke-linecap="butt" font-size="16px" transform="matrix(1,0,0,1,-435,-129)" fill="red" text-rendering="geometricPrecision" font-family="'Arial'" shape-rendering="geometricPrecision" stroke="red" font-weight="bold" stroke-miterlimit="1.45">
      <text x="589.6016" xml:space="preserve" y="218.0469" clip-path="url(#clipPath2)" stroke="none">99</text>
    </g>
    <g stroke-linecap="butt" transform="matrix(1,0,0,1,-435,-129)" fill="rgb(255,102,0)" text-rendering="geometricPrecision" shape-rendering="geometricPrecision" stroke="rgb(255,102,0)" stroke-width="2" stroke-miterlimit="1.45">
      <path fill="none" d="M484.162 151 L552.4612 187.7367" clip-path="url(#clipPath2)"/>
      <path d="M560.3873 192 L551.1627 180.6512 L551.4704 187.2038 L545.8335 190.5589 Z" clip-path="url(#clipPath2)" stroke="none"/>
      <path fill="none" d="M680.9818 156 L615.425 200.9064" clip-path="url(#clipPath2)"/>
      <path d="M608 205.9925 L622.3164 203.004 L616.3531 200.2706 L615.9587 193.7226 Z" clip-path="url(#clipPath2)" stroke="none"/>
    </g>
  </g>
</svg>
